# xmcd
#
# Track frame offsets:
#	150
#	16193
#	31545
#	48264
#	61256
#	75234
#	90766
#	109526
#	124732
#	141145
#	157609
#	175266
#	190499
#
# Disc length: 2766 seconds
#
# Revision: 1
# Processed by: cddbd v1.5.2PL0 Copyright (c) Steve Scherf et al.
# Submitted via: audiograbber 1.83.01
#
DISCID=860acc0d
DTITLE=Various Artist - CDX 635
DYEAR=2016
DGENRE=Country
TTITLE0=Mickey Guyton - Heartbreak Song
TTITLE1=Dylon Scott - My Girl
TTITLE2=Mark Chesnutt - Oughta Miss Me By Now
TTITLE3=Mark Chesnutt - Iv'e Got A Quarter In My Pocket
TTITLE4=David Shelby - Back To Us
TTITLE5=Layce Whitworth - But You Oughta
TTITLE6=Sarah Dunn Band - Dirty
TTITLE7=Stephanie Quayle - Drinking With Dolly 
TTITLE8=Macy Martin - Heart Sleeve Soul
TTITLE9=Dennie Hall - Hollerwood
TTITLE10=Max Lisa - Taylor Swift (Smile)
TTITLE11=Libby Koch - You Don't Live Here Anymore
TTITLE12=Jerry Don - You Should Have Been There
EXTD=
EXTT0=
EXTT1=
EXTT2=
EXTT3=
EXTT4=
EXTT5=
EXTT6=
EXTT7=
EXTT8=
EXTT9=
EXTT10=
EXTT11=
EXTT12=
PLAYORDER=
